HIERARCHY
ROOT Hips
{
	OFFSET -0.001795 -0.223333 0.028219
	CHANNELS 6 Xposition Yposition Zposition Zrotation Yrotation Xrotation 
	JOINT LeftUpLeg
	{
		OFFSET 0.069520 -0.091406 -0.006815
		CHANNELS 3 Zrotation Yrotation Xrotation
		JOINT LeftLeg
		{
			OFFSET 0.034277 -0.375199 -0.004496
			CHANNELS 3 Zrotation Yrotation Xrotation
			JOINT LeftFoot
			{
				OFFSET -0.013596 -0.397961 -0.043693
				CHANNELS 3 Zrotation Yrotation Xrotation
				JOINT LeftToe
				{
					OFFSET 0.026358 -0.055791 0.119288
					CHANNELS 3 Zrotation Yrotation Xrotation
					End Site
					{
						OFFSET 0.000000 0.000000 0.000000
					}
				}
			}
		}
	}
	JOINT RightUpLeg
	{
		OFFSET -0.067670 -0.090522 -0.004320
		CHANNELS 3 Zrotation Yrotation Xrotation
		JOINT RightLeg
		{
			OFFSET -0.038290 -0.382569 -0.008850
			CHANNELS 3 Zrotation Yrotation Xrotation
			JOINT RightFoot
			{
				OFFSET 0.015774 -0.398415 -0.042312
				CHANNELS 3 Zrotation Yrotation Xrotation
				JOINT RightToe
				{
					OFFSET -0.025372 -0.048144 0.123348
					CHANNELS 3 Zrotation Yrotation Xrotation
					End Site
					{
						OFFSET 0.000000 0.000000 0.000000
					}
				}
			}
		}
	}
	JOINT Spine
	{
		OFFSET -0.002533 0.108963 -0.026696
		CHANNELS 3 Zrotation Yrotation Xrotation
		JOINT Spine1
		{
			OFFSET 0.005487 0.135180 0.001092
			CHANNELS 3 Zrotation Yrotation Xrotation
			JOINT Spine2
			{
				OFFSET 0.001457 0.052922 0.025425
				CHANNELS 3 Zrotation Yrotation Xrotation
				JOINT Neck
				{
					OFFSET -0.002778 0.213870 -0.042857
					CHANNELS 3 Zrotation Yrotation Xrotation
					JOINT Head
					{
						OFFSET 0.005152 0.064970 0.051349
						CHANNELS 3 Zrotation Yrotation Xrotation
						End Site
						{
							OFFSET 0.000000 0.000000 0.000000
						}
					}
				}
				JOINT LeftShoulder
				{
					OFFSET 0.078845 0.121749 -0.034090
					CHANNELS 3 Zrotation Yrotation Xrotation
					JOINT LeftArm
					{
						OFFSET 0.090977 0.030469 -0.008868
						CHANNELS 3 Zrotation Yrotation Xrotation
						JOINT LeftForeArm
						{
							OFFSET 0.259612 -0.012772 -0.027456
							CHANNELS 3 Zrotation Yrotation Xrotation
							JOINT LeftHand
							{
								OFFSET 0.249234 0.008986 -0.001171
								CHANNELS 3 Zrotation Yrotation Xrotation
								End Site
								{
									OFFSET 0.000000 0.000000 0.000000
								}
							}
						}
					}
				}
				JOINT RightShoulder
				{
					OFFSET -0.081759 0.118833 -0.038615
					CHANNELS 3 Zrotation Yrotation Xrotation
					JOINT RightArm
					{
						OFFSET -0.096012 0.032551 -0.009143
						CHANNELS 3 Zrotation Yrotation Xrotation
						JOINT RightForeArm
						{
							OFFSET -0.253742 -0.013329 -0.021401
							CHANNELS 3 Zrotation Yrotation Xrotation
							JOINT RightHand
							{
								OFFSET -0.255298 0.007772 -0.005559
								CHANNELS 3 Zrotation Yrotation Xrotation
								End Site
								{
									OFFSET 0.000000 0.000000 0.000000
								}
							}
						}
					}
				}
			}
		}
	}
}
MOTION
Frames: 15
Frame Time: 0.050000
0.344256 0.937678 2.067455 -0.724222 1.346942 -5.781730 -1.864671 -1.730832 -15.726147 -5.216332 0.730379 20.811820 9.092999 19.044986 12.638068 0.000000 0.000000 0.000000 -3.076388 1.252458 -17.064985 -0.162191 2.798335 67.161129 -1.187150 -5.727877 7.189431 0.000000 0.000000 0.000000 4.843514 -1.045466 12.873944 -5.034510 1.823262 -26.749153 -0.300860 8.995007 30.277364 7.546574 -0.149009 -34.183893 0.000000 0.000000 0.000000 -12.182845 -8.715585 1.794397 -42.299987 -0.459064 -6.659543 1.526161 -22.680813 0.314034 0.000000 0.000000 0.000000 21.325001 -4.427549 -0.883610 47.591716 15.766122 -1.957337 -10.860022 21.703093 -0.263809 0.000000 0.000000 0.000000 
0.360626 0.932284 2.134082 -0.723606 3.220907 -7.582422 -4.236214 -1.496437 -11.315416 -4.841455 0.461679 24.861950 9.555576 19.550730 6.533964 0.000000 0.000000 0.000000 -2.240434 1.770884 -23.436106 0.026933 1.668526 62.792737 -2.548307 -7.671189 4.215312 0.000000 0.000000 0.000000 5.012180 -1.328878 15.677814 -4.990528 1.809165 -27.997149 -0.793432 6.082751 31.742672 7.628850 -0.500762 -34.640385 0.000000 0.000000 0.000000 -16.783853 -10.466712 2.659444 -45.215903 -3.614708 -6.152715 0.121250 -19.183297 0.631510 0.000000 0.000000 0.000000 25.217960 -4.647376 -1.423846 53.942084 11.641218 -3.772831 -7.454691 16.051785 0.161184 0.000000 0.000000 0.000000 
0.374976 0.933124 2.200102 -1.345673 4.906045 -7.902365 -4.799364 -0.792624 -5.867544 -3.757582 -0.015531 23.854499 8.121701 16.656035 2.265885 0.000000 0.000000 0.000000 -1.343758 2.108352 -26.858577 0.977338 0.305066 50.679105 -2.530821 -7.723429 5.091281 0.000000 0.000000 0.000000 6.204214 -1.468073 15.220744 -5.842120 2.050541 -26.970411 -0.923809 3.489227 31.166636 7.736637 -0.771819 -34.842383 0.000000 0.000000 0.000000 -17.982798 -10.082944 2.726631 -46.111483 -7.345519 -4.927737 0.672708 -18.822107 0.583132 0.000000 0.000000 0.000000 23.405847 -6.668647 -3.124050 57.087677 6.006185 -6.051673 -7.289121 11.309098 0.150660 0.000000 0.000000 0.000000 
0.388192 0.941061 2.266927 -2.069838 5.724930 -8.478699 -5.139364 -0.022643 -0.047021 -2.284437 -0.458565 21.940026 7.524833 15.452653 1.972588 0.000000 0.000000 0.000000 0.508093 2.453314 -26.202943 2.110266 -0.259038 32.790769 -1.321344 -5.861669 8.408634 0.000000 0.000000 0.000000 7.195189 -1.491167 14.281231 -5.040480 1.850483 -27.763574 -2.243246 2.495442 31.815046 7.740093 -1.187059 -32.223228 0.000000 0.000000 0.000000 -14.280607 -6.805562 1.446086 -42.383876 -8.867193 -4.254937 4.956170 -20.007533 -0.133980 0.000000 0.000000 0.000000 17.951761 -10.415619 -5.067042 54.335943 1.691810 -7.523149 -9.034434 10.854342 0.079135 0.000000 0.000000 0.000000 
0.401322 0.948339 2.335280 -1.849891 5.559081 -6.893633 -5.816610 0.446216 3.281717 -1.495909 -0.538261 19.215893 8.009617 16.431881 2.664397 0.000000 0.000000 0.000000 3.040779 2.911794 -24.862352 2.148803 -0.117520 17.459552 0.624812 -3.420690 13.401730 0.000000 0.000000 0.000000 7.247407 -1.069513 10.476710 -4.251037 1.640585 -28.633838 -3.506234 2.721652 31.967592 8.596263 -1.969144 -29.773678 0.000000 0.000000 0.000000 -6.179768 -4.829487 1.191208 -34.695942 -10.119296 -3.353736 9.961687 -20.337540 -1.147812 0.000000 0.000000 0.000000 13.251192 -13.563912 -6.380739 41.387781 -0.282404 -6.528272 -12.902906 11.853523 -0.211170 0.000000 0.000000 0.000000 
0.416018 0.951799 2.405549 -1.988003 6.638048 -5.670104 -4.926887 0.752717 5.879835 -1.564861 -0.620020 20.220877 6.689638 14.202058 3.609844 0.000000 0.000000 0.000000 5.692260 3.066327 -21.981116 0.161970 0.284554 11.007757 2.142579 -1.356599 16.298370 0.000000 0.000000 0.000000 8.220452 -0.710151 6.547457 -4.731094 1.748452 -28.066176 -4.353302 1.811577 29.936741 7.620927 -1.975625 -25.676169 0.000000 0.000000 0.000000 1.995084 -2.197578 0.901226 -24.779576 -11.997509 -2.157754 17.359387 -17.477531 -2.299888 0.000000 0.000000 0.000000 5.837579 -14.981680 -6.310002 25.154271 0.330229 -3.768783 -13.861400 8.773752 -0.186012 0.000000 0.000000 0.000000 
0.431915 0.950984 2.474988 -1.838541 7.669663 -5.370737 -3.232900 0.777467 7.078133 -3.721655 -0.328762 26.259237 3.781517 9.981562 6.946588 0.000000 0.000000 0.000000 6.232696 2.785557 -19.300250 -0.702777 0.498113 12.776946 -0.614887 -5.394498 13.585314 0.000000 0.000000 0.000000 8.742960 -0.579137 5.152274 -5.163665 1.681385 -31.339837 -5.077038 2.356432 30.572310 7.944329 -2.719194 -21.209691 0.000000 0.000000 0.000000 11.764269 0.865576 1.011971 -11.633925 -15.533715 -1.296618 19.745094 -12.347183 -2.158241 0.000000 0.000000 0.000000 -3.715859 -17.719234 -6.315381 10.471901 5.617453 -1.455135 -10.427213 4.133090 0.149115 0.000000 0.000000 0.000000 
0.446408 0.951681 2.536737 -2.210063 7.127813 -5.507834 1.278404 0.358988 5.527632 -8.891263 1.414026 34.668976 1.239087 6.965349 11.064333 0.000000 0.000000 0.000000 7.116477 2.518675 -16.250221 -0.421410 0.477590 14.549718 -1.988697 -7.307290 9.850427 0.000000 0.000000 0.000000 8.838287 -0.638419 5.651958 -4.573041 1.503514 -32.927694 -5.344522 1.981548 29.060242 6.852182 -2.438793 -18.915490 0.000000 0.000000 0.000000 18.844291 3.800439 1.043435 -0.126232 -16.173339 -1.156095 18.862379 -4.329856 -0.895961 0.000000 0.000000 0.000000 -11.873249 -15.432290 -4.536918 1.492094 9.040638 -0.687354 -9.329295 -0.467556 0.341035 0.000000 0.000000 0.000000 
0.458529 0.956010 2.586869 -2.397374 8.203654 -5.665299 4.836577 -0.038452 1.220348 -11.730328 2.481186 42.246868 2.574107 9.476299 12.368251 0.000000 0.000000 0.000000 7.217527 2.053909 -12.985734 -0.892030 0.567130 14.674781 -3.279152 -9.479471 7.597079 0.000000 0.000000 0.000000 8.333665 -0.846179 7.533498 -6.082429 1.520182 -36.263484 -3.507839 2.329079 29.954929 8.288714 -3.533037 -17.858742 0.000000 0.000000 0.000000 24.182770 6.373325 1.368688 8.689784 -20.482311 -2.075522 19.713318 3.209490 0.043890 0.000000 0.000000 0.000000 -17.684175 -16.906782 -4.497915 -4.277150 11.242329 -0.507813 -8.230015 -2.674119 0.398827 0.000000 0.000000 0.000000 
0.469326 0.962848 2.627745 -2.026406 7.662595 -4.931416 6.051478 -0.181648 -2.057516 -12.244726 2.839282 41.210570 5.128542 12.839211 9.567053 0.000000 0.000000 0.000000 6.678718 1.517540 -9.775436 -0.590466 0.477105 13.075931 -3.343238 -9.537587 6.400998 0.000000 0.000000 0.000000 7.558344 -0.870919 8.083328 -5.780345 1.431200 -37.101482 -2.318736 3.259875 29.315283 8.229440 -3.612821 -16.716025 0.000000 0.000000 0.000000 27.351321 7.745849 1.707632 12.760570 -21.304999 -2.591074 19.782842 9.034585 0.776700 0.000000 0.000000 0.000000 -22.412246 -15.304011 -3.825818 -7.935768 12.786918 -0.485782 -8.112804 -4.268887 0.467264 0.000000 0.000000 0.000000 
0.479569 0.969976 2.661366 -1.133337 6.903000 -4.095340 6.186203 -0.261183 -4.244022 -10.136375 1.973883 35.490685 6.465718 14.584665 7.159034 0.000000 0.000000 0.000000 6.129816 1.097380 -7.324573 -1.913194 0.732394 10.913860 -2.389166 -7.696882 7.107400 0.000000 0.000000 0.000000 6.493357 -0.942419 9.364592 -5.371097 1.294554 -39.129681 -1.633318 5.512862 29.343288 9.602470 -4.459651 -16.257544 0.000000 0.000000 0.000000 28.573960 9.361377 2.089239 15.208371 -24.016798 -3.679046 21.096102 12.859251 1.241434 0.000000 0.000000 0.000000 -23.734170 -14.741635 -4.035747 -10.604071 14.932029 -0.597129 -8.515390 -6.296870 0.617850 0.000000 0.000000 0.000000 
0.489293 0.974213 2.689650 -0.439354 5.552102 -3.192490 4.887968 -0.273736 -4.148471 -6.680641 0.860012 23.814448 6.581093 14.689836 6.702073 0.000000 0.000000 0.000000 4.950071 0.688084 -5.026611 -1.716133 0.593670 8.141196 -1.685637 -6.456126 7.628762 0.000000 0.000000 0.000000 5.741346 -0.839875 8.934707 -5.185070 1.348826 -38.599970 -1.663322 6.829730 29.118444 10.527908 -4.884033 -16.944761 0.000000 0.000000 0.000000 30.512190 9.684712 2.462487 16.829608 -25.101966 -4.268738 22.020266 15.928550 1.687825 0.000000 0.000000 0.000000 -25.179875 -13.973267 -3.894257 -10.954422 17.597171 -0.932902 -9.770807 -7.298830 0.814177 0.000000 0.000000 0.000000 
0.497937 0.975674 2.713730 -0.084435 5.095741 -2.823188 4.473718 -0.265367 -3.848806 -4.695607 0.426693 14.278428 4.131942 10.572479 6.930022 0.000000 0.000000 0.000000 3.974182 0.438261 -3.464967 -1.665398 0.559635 7.510154 -1.275661 -5.686884 7.800649 0.000000 0.000000 0.000000 5.589932 -0.862613 9.268129 -5.836579 1.471295 -38.011770 -1.655108 6.688156 28.498021 11.378535 -5.570853 -16.968286 0.000000 0.000000 0.000000 31.938015 9.682539 2.581711 18.538549 -25.033345 -4.449483 20.561154 15.785921 1.571485 0.000000 0.000000 0.000000 -25.690274 -13.965046 -3.713108 -12.581567 19.839038 -1.308054 -10.752782 -7.347299 0.908777 0.000000 0.000000 0.000000 
0.505213 0.975127 2.734283 -0.184990 4.657936 -2.513056 3.707308 -0.166278 -1.932340 -2.344167 0.115883 6.466280 1.530797 6.306089 7.779458 0.000000 0.000000 0.000000 3.415482 0.215246 -1.887649 -2.166160 0.562104 5.727405 -1.289863 -5.937596 8.457150 0.000000 0.000000 0.000000 5.414254 -0.761431 8.330705 -5.709967 1.505681 -37.147579 -1.750747 6.876061 29.215992 13.907178 -7.249548 -17.955597 0.000000 0.000000 0.000000 33.935486 8.051581 2.833017 20.088412 -24.010881 -4.343531 17.954046 16.176884 1.354003 0.000000 0.000000 0.000000 -25.499158 -13.921223 -3.755121 -15.204842 20.947699 -1.558407 -10.198106 -7.175429 0.822260 0.000000 0.000000 0.000000 
0.511106 0.973738 2.751583 -0.605084 3.973854 -3.006725 3.178535 -0.006648 0.583640 -1.324104 0.017622 4.547566 1.095876 5.731659 8.442076 0.000000 0.000000 0.000000 3.358960 0.102510 -1.029783 -2.350409 0.602926 5.878084 -1.001649 -5.187177 7.699831 0.000000 0.000000 0.000000 5.365788 -0.735617 8.215853 -5.192458 1.504295 -36.119498 -2.282868 6.607713 29.166153 14.713005 -8.618251 -15.721383 0.000000 0.000000 0.000000 34.635401 7.226762 2.739041 22.515299 -22.646691 -4.131695 15.053680 14.767342 0.983916 0.000000 0.000000 0.000000 -25.653212 -12.549245 -3.428079 -16.703855 21.631224 -1.769027 -10.731348 -7.026050 0.841818 0.000000 0.000000 0.000000 
